<?xml version="1.0" encoding="utf-8"?>
<!-- Svg Vector Icons : http://www.onlinewebfonts.com/icon -->
<!DOCTYPE svg PUBLIC "-//W3C//DTD SVG 1.1//EN" "http://www.w3.org/Graphics/SVG/1.1/DTD/svg11.dtd">
<svg version="1.1" xmlns="http://www.w3.org/2000/svg" xmlns:xlink="http://www.w3.org/1999/xlink" x="0px" y="0px" viewBox="0 0 1000 1000" enable-background="new 0 0 1000 1000" xml:space="preserve">
<metadata> Svg Vector Icons : http://www.onlinewebfonts.com/icon </metadata>
<g><g id="c133de6af664cd4f011a55de6b001a2b"><path d="M400.4,98.6v42.2h-108V10h108v46.3h-61.7v42.3H400.4z M511.4,56.3h43.1V10h-108c0,0,0,23.2,0,46.3c14.4,14.4,22,21.4,42.9,42.3c-12.2,0-42.9,0-42.9,0v42.2h108V98.6L511.4,56.3z M664.4,56.3h43.1V10h-108c0,0,0,23.2,0,46.3c14.4,14.4,22,21.4,42.9,42.3c-12.2,0-42.9,0-42.9,0v42.2h108V98.6L664.4,56.3z M849.8,203l-65.6,710.5L500,990l-284.2-76.5L150.2,203H849.8z M717.6,347.4H499.7H278l10.6,85.8h211.1h11.9l-11.9,4.9l-203.4,84.7l6.7,83.9l196.7,0.6l105.4,0.3l-6.8,111.8l-98.7,27.8v-0.1l-0.8,0.2l-95.3-24.1l-5.8-69.4h-0.3h-88.4h-0.3l11.6,134l179.3,53v-0.1l0.3,0.1L678.4,789l23.1-266.1H499.7h-0.5l0.5-0.2l209.2-89.4L717.6,347.4z"/></g></g>
</svg>