<?xml version="1.0" encoding="utf-8"?>
<!-- Svg Vector Icons : http://www.onlinewebfonts.com/icon -->
<!DOCTYPE svg PUBLIC "-//W3C//DTD SVG 1.1//EN" "http://www.w3.org/Graphics/SVG/1.1/DTD/svg11.dtd">
<svg version="1.1" xmlns="http://www.w3.org/2000/svg" xmlns:xlink="http://www.w3.org/1999/xlink" x="0px" y="0px" viewBox="0 0 1000 1000" enable-background="new 0 0 1000 1000" xml:space="preserve">
<metadata> Svg Vector Icons : http://www.onlinewebfonts.com/icon </metadata>
<g><g id="c133de6af664cd4f011a55de6b000d0b"><path d="M217.4,10h44.2v43.6H302V10h44.2v132.2H302V97.9h-40.4v44.3h-44.2L217.4,10L217.4,10z M404.3,53.8h-38.9V10h122v43.8h-38.9v88.3h-44.2L404.3,53.8L404.3,53.8z M506.7,10h46.1l28.3,46.4L609.4,10h46.1v132.2h-44V76.7l-30.4,47h-0.8l-30.4-47v65.5h-43.2V10L506.7,10z M677.5,10h44.2v88.5h62.1v43.7H677.5V10z M152.9,202.6L216,911.3L499.6,990l284.3-78.8l63.3-708.6L152.9,202.6L152.9,202.6z M715.4,370.8l-4,44.1l-1.7,19.5h-0.3H500h-0.3H377l7.9,89h114.7h0.3h178.3h23.4l-2.1,23.3l-20.4,228.8l-1.3,14.7L500,839.5v0l-0.4,0.1l-178-49.4l-12.2-136.5h40.2h47l6.2,69.3l96.8,26.1l0.1,0v0l96.9-26.2l10.1-112.7H500h-0.3H305.5l-21.4-239.5l-2.1-23.3h217.6h0.3h217.4L715.4,370.8z"/></g></g>
</svg>