<?xml version="1.0" encoding="utf-8"?>
<!-- Svg Vector Icons : http://www.onlinewebfonts.com/icon -->
<!DOCTYPE svg PUBLIC "-//W3C//DTD SVG 1.1//EN" "http://www.w3.org/Graphics/SVG/1.1/DTD/svg11.dtd">
<svg version="1.1" xmlns="http://www.w3.org/2000/svg" xmlns:xlink="http://www.w3.org/1999/xlink" x="0px" y="0px" viewBox="0 0 1000 1000" enable-background="new 0 0 1000 1000" xml:space="preserve">
<metadata> Svg Vector Icons : http://www.onlinewebfonts.com/icon </metadata>
<g><path d="M360,167.5v431c0,90.9-21.1,157.5-62.7,197.8c-37.3,36.2-92,53.7-167.2,53.7c-26.3,0-56.4-3.3-81.3-8.5l8.9-66.7c15.6,2.8,33.8,4.7,54.2,4.7c48,0,82.9-14.1,106.8-43.2c24.8-30.1,36.3-74.2,36.3-138.9V167.5H360 M395,132.5H220v464.8c0,115-39.4,147.1-108.1,147.1c-32.2,0-61.1-5.5-83.7-13.3L10,867.3C42.2,878.4,91.5,885,130.1,885C287.7,885,395,810.9,395,598.5V132.5L395,132.5z"/><path d="M776.6,150c53.5,0,100.4,6.9,142.4,21l-21,70.1c-29.8-12-71.2-23.9-123.6-23.9c-40.7,0-75.4,10-100.3,29c-25.7,19.5-39.8,47.2-39.8,77.9c0,76.5,72.3,105.3,156.1,138.7l0.2,0.1l0.2,0.1c59,22.5,100.5,48.7,126.8,80c25.4,30.2,37.2,65.4,37.2,110.8c0,55.1-20.4,102.2-59,136.2c-44.5,39.2-112.5,60-196.5,60c-61.4,0-119.7-14.1-158.8-30.6l16.6-69.1c38.5,15.9,91.6,31.5,151.9,31.5c44.4,0,80.1-9.8,106.3-29.1c28-20.7,43.4-51.8,43.4-87.8c0-33.6-13.2-61.1-40.4-84.1c-22.2-18.8-54.3-35.1-103.8-52.8c-58.8-21.7-103.6-48-133.3-78.3c-31.1-31.8-46.3-68.1-46.3-111.2c0-52.8,21.5-98.7,62.2-132.5C641.1,169.3,703.2,150,776.6,150 M776.6,115C607.2,115,500,211.2,500,338.5c0,109.6,82.6,178.1,202.7,222.4c86.8,31,121.2,58.6,121.2,104c0,49.8-39.7,81.9-114.7,81.9c-69.7,0-133-23.3-175.9-46.5v0L500,838.5c40.8,23.3,116.9,46.5,199.4,46.5C897.8,885,990,778.8,990,653.7c0-106.2-59-174.8-186.5-223.5c-94.4-37.6-134-58.6-134-106.2c0-37.6,34.3-71.9,105.1-71.9c69.7,0,117.6,23.4,145.5,37.8l41.8-140C918.1,130.8,859.2,115,776.6,115L776.6,115z"/></g>
</svg>