<?xml version="1.0" encoding="utf-8"?>
<!-- Svg Vector Icons : http://www.onlinewebfonts.com/icon -->
<!DOCTYPE svg PUBLIC "-//W3C//DTD SVG 1.1//EN" "http://www.w3.org/Graphics/SVG/1.1/DTD/svg11.dtd">
<svg version="1.1" xmlns="http://www.w3.org/2000/svg" xmlns:xlink="http://www.w3.org/1999/xlink" x="0px" y="0px" viewBox="0 0 1000 1000" enable-background="new 0 0 1000 1000" xml:space="preserve">
<metadata> Svg Vector Icons : http://www.onlinewebfonts.com/icon </metadata>
<g><path d="M442.4,234.7c-4,0.4-6.8,2.3-8.5,5.7c-1.6,3.5-3.2,5.2-4.7,5.2c-1.8,0.4-2.7-0.5-2.7-2.7c0-4.4,3.5-7.1,10.4-8.2H442.4L442.4,234.7z M490,242.4c-1.5,0.4-3.6-0.8-6.3-3.6c-2.7-2.8-5.9-3.6-9.6-2.5c8.7-4,14.6-3.7,17.5,1.1C492.8,239.6,492.2,241.3,490,242.4L490,242.4z M298.1,475.9c-1.5-0.4-2.6,0.2-3.3,1.6c-0.7,1.5-1.5,3.7-2.5,6.8c-0.9,3.1-1.9,5.5-3,7.4c-1.1,1.8-2.9,4.2-5.5,7.1c-2.5,3.6-2.7,5.8-0.6,6.5c1.5,0.4,3.7-0.9,6.8-3.8c3.1-2.9,5.4-6.2,6.8-9.8c0.4-1.1,0.7-2.4,1.1-3.8c0.4-1.4,0.7-2.5,1.1-3.3c0.4-0.7,0.6-1.6,0.8-2.5c0.2-0.9,0.3-1.6,0.3-2.2v-1.6c0,0-0.2-0.5-0.6-1.4C299.3,476,298.7,475.7,298.1,475.9L298.1,475.9z M765.6,672.2c0-6.6-10-14.2-30.1-23c1.5-5.5,2.8-10.5,4.1-15c1.3-4.6,2.2-9.3,2.7-14.2c0.6-4.9,1.1-8.8,1.6-11.8s0.6-7,0.3-12.3c-0.3-5.3-0.5-8.8-0.6-10.7c0-1.8-0.7-5.9-1.9-12c-1.3-6.2-2-9.9-2.2-11.2c-0.2-1.3-1.1-5.8-2.7-13.7c-1.6-7.8-2.6-12.7-3-14.5c-3.6-17.5-12.2-36.3-25.7-56.3c-13.5-20-26.6-33.7-39.4-41c8.7,7.3,19.1,22.4,31.2,45.4c31.7,59.1,41.6,109.7,29.5,152c-4,14.6-13.1,22.2-27.3,23c-11.3,1.5-18.3-1.9-21.1-10.1c-2.8-8.2-4.2-23.4-4.4-45.7c-0.2-22.2-2.3-41.7-6.3-58.5c-3.3-14.2-6.8-26.8-10.7-37.7c-3.8-10.9-7.4-19.2-10.7-24.9c-3.3-5.6-6.1-10.1-8.5-13.4c-2.4-3.3-4.7-6-7.1-8.2s-3.7-3.4-4.1-3.8c-5.1-22.6-10.8-41.4-16.9-56.3c-6.2-14.9-11.6-25.1-16.1-30.6c-4.6-5.5-8.9-11.5-12.8-18.1c-4-6.6-6.7-13.8-8.2-21.9c-1.5-7.7-0.4-17.4,3.3-29.3c3.7-11.9,4.5-20.9,2.5-27.1c-2-6.2-10.1-10.7-24.3-13.7c-5.5-1.1-13.6-4.4-24.3-9.8c-10.8-5.5-17.2-8.4-19.4-8.7c-2.9-0.4-4.9-5.1-6-14.2c-1.1-9.1,0.4-18.4,4.4-27.9c4-9.5,10.6-14.4,19.7-14.8c13.5-1.1,22.8,4.4,27.9,16.4s5.8,22.6,2.2,31.7c-4,6.9-4.4,11.8-1.1,14.5c3.3,2.7,8.8,2.8,16.4,0.3c4.7-1.5,7.1-8,7.1-19.7v-20.2c-1.8-10.9-4.3-20.1-7.4-27.3s-6.9-12.8-11.5-16.7c-4.5-3.8-8.8-6.6-12.8-8.2c-4-1.6-8.9-3-14.8-4.1c-39,2.9-55.2,27.3-48.7,73.3c0,5.5-0.2,8.2-0.6,8.2c-3.3-3.3-8.7-5.2-16.1-5.7c-7.5-0.5-13.5-0.4-18.1,0.3c-4.6,0.7-7.4-0.2-8.5-2.7c0.4-20.8-2.5-37.2-8.7-49.2c-6.2-12-14.4-18.2-24.6-18.6c-9.8-0.4-17.4,4.6-22.7,15c-5.3,10.4-8.3,21.3-9,32.5c-0.4,5.5,0.3,12.2,1.9,20.2c1.7,8,4,14.9,7.1,20.5c3.1,5.6,5.9,8.1,8.5,7.4c3.6-1.1,6.6-3.7,8.8-7.7c1.5-3.3,0.2-4.7-3.8-4.4c-2.5,0-5.4-2.6-8.5-7.9c-3.1-5.3-4.8-11.4-5.2-18.3c-0.4-8,1.3-14.8,4.9-20.2c3.7-5.5,9.9-8,18.6-7.7c6.2,0,11.1,3.8,14.8,11.5c3.6,7.7,5.4,14.8,5.2,21.3c-0.2,6.6-0.5,10.6-0.8,12c-8,5.5-13.7,10.7-16.9,15.9c-2.9,4.4-7.9,8.6-15,12.8c-7.1,4.2-10.8,6.5-11.2,6.8c-4.7,5.1-7.6,10-8.5,14.8c-0.9,4.7,0.5,8,4.1,9.8c5.1,2.9,9.7,6.5,13.7,10.7c4,4.2,6.9,7.7,8.8,10.4c1.8,2.7,5.2,5.1,10.1,7.1c4.9,2,11.4,3.2,19.4,3.6c17.1,0.7,35.7-2,55.8-8.2c0.7-0.4,4.9-1.6,12.6-3.8c7.7-2.2,13.9-4.1,18.9-5.7c4.9-1.7,10.3-4,16.1-7.1s9.7-6.3,11.5-9.6c3.3-5.1,6.9-6.6,11-4.4c1.8,1.1,3,2.6,3.6,4.7s0,4.2-1.6,6.5c-1.7,2.4-4.7,4.1-9,5.2c-7.3,2.2-17.6,6.1-30.9,11.8c-13.3,5.6-21.6,9.2-24.9,10.7c-16.1,6.9-28.8,11.1-38.3,12.6c-9.1,1.8-23.5,1.5-43.2-1.1c-3.6-0.7-5.3-0.4-4.9,1.1s3.5,4.9,9.3,10.4c9.1,8.4,21.3,12.4,36.6,12c6.2-0.4,12.8-1.6,19.7-3.8s13.5-4.7,19.7-7.7c6.2-2.9,12.3-6.1,18.3-9.6c6-3.4,11.5-6.5,16.4-9.3s9.4-5,13.4-6.5c4-1.6,7.2-2,9.6-1.4s3.9,2.7,4.7,6c0,0.7-0.2,1.5-0.6,2.5c-0.4,0.9-1.1,1.8-2.2,2.7c-1.1,0.9-2.2,1.7-3.3,2.5c-1.1,0.7-2.6,1.6-4.7,2.7c-2,1.1-3.7,1.9-4.9,2.4s-3.1,1.4-5.5,2.7c-2.4,1.3-4.1,2.1-5.2,2.5c-10.2,5.1-22.5,13.1-36.9,24.1c-14.4,10.9-26.5,18.8-36.4,23.5c-9.8,4.7-18.8,4.9-26.8,0.6c-7.7-4-19.1-17.3-34.4-39.9c-8-11.3-12.6-15.3-13.7-12c-0.4,1.1-0.6,2.9-0.6,5.5c0,9.1-2.7,19.4-8.2,30.9s-10.8,21.6-16.1,30.3c-5.3,8.7-9.1,19.3-11.5,31.7c-2.4,12.4-0.3,23.9,6.3,34.4c-8.4,2.2-19.8,18.6-34.2,49.2c-14.4,30.6-23.1,56.3-26,77.1c-0.7,6.6-1,19.1-0.8,37.7c0.2,18.6-0.8,29.4-3,32.3c-2.9,8.8-8.2,9.3-15.9,1.6C264,657.1,257.5,640,256,617c-0.7-10.2,0-20.4,2.2-30.6c1.5-6.9,1.3-10.2-0.6-9.8l-2.2,2.7c-13.1,23.7-11.3,54,5.5,90.8c1.8,4.4,6.4,9.5,13.7,15.3c7.3,5.9,11.7,9.5,13.1,11c7.3,8.4,26.3,24.9,56.9,49.5c30.6,24.6,47.6,38.6,50.9,41.8c5.8,5.5,9,12.4,9.6,20.8c0.5,8.4-2,16.2-7.7,23.5c-5.6,7.3-13.9,11.5-24.9,12.6c2.9,5.5,8.2,13.6,15.9,24.3c7.7,10.8,12.8,20.6,15.3,29.5c2.6,8.9,3.8,21.8,3.8,38.6c16.8-8.8,18-25.5,3.8-50.3c-1.5-2.9-3.4-5.8-5.7-8.7c-2.4-2.9-4.1-5.1-5.2-6.5c-1.1-1.4-1.5-2.5-1.1-3.3c1.1-1.8,3.5-3.5,7.1-5.2s7.3-1.2,11,1.4c16.8,18.9,47,25.5,90.8,19.7c48.5-5.5,80.8-21.3,96.8-47.6c8.4-13.9,14.6-19.3,18.6-16.4c4.4,2.2,6.2,11.7,5.5,28.4c-0.4,9.1-4.6,25.9-12.6,50.3c-3.3,8.4-4.4,15.2-3.3,20.5c1.1,5.3,5.5,8.1,13.1,8.5c1.1-6.9,3.7-21,7.9-42.1c4.2-21.1,6.7-37.5,7.4-49.2c0.7-7.7-0.5-21-3.6-40.2c-3.1-19.1-4.5-36.8-4.1-53.1c0.4-16.2,4.6-29.1,12.6-38.6c5.5-6.6,14.8-9.8,27.9-9.8c0.4-13.5,6.7-23.1,18.9-29c12.2-5.8,25.4-7.7,39.7-5.7c14.2,2,25.2,6.1,32.8,12.3L765.6,672.2z M422.2,220c1.1-6.2,0.6-11.7-1.4-16.4c-2-4.7-4.1-7.5-6.3-8.2c-3.3-0.7-4.9,0.5-4.9,3.8c0.7,1.8,1.6,2.9,2.7,3.3c3.6,0,4.9,2.7,3.8,8.2c-1.1,7.3,0.4,11,4.4,11C421.6,221.6,422.2,221,422.2,220L422.2,220z M651.3,327.7c-0.7-2.9-1.9-5-3.6-6.3c-1.7-1.3-4-2.2-7.1-2.7c-3.1-0.5-5.7-1.5-7.9-3c-1.8-1.1-3.5-2.6-5.2-4.4c-1.6-1.8-2.9-3.3-3.8-4.4s-1.9-2.3-3-3.6c-1.1-1.3-1.8-2-2.2-2.2c-0.4-0.2-1.1,0.1-2.2,0.8c-5.1,5.8-3.8,13.8,3.8,23.8c7.7,10,14.8,15.8,21.3,17.2c3.3,0.4,5.9-1.1,7.9-4.4C651.4,335.3,652,331.6,651.3,327.7L651.3,327.7z M554,211.2c0-4-0.9-7.6-2.7-10.7c-1.8-3.1-3.8-5.4-6-6.8s-3.8-2-4.9-1.6c-5.1,0.4-6.4,1.6-3.8,3.8l2.2,1.1c5.1,1.5,8.4,7.1,9.8,16.9c0,1.1,1.5,0.7,4.4-1.1L554,211.2z M583.5,83.8c0-0.7-0.5-1.6-1.4-2.7c-0.9-1.1-2.6-2.4-4.9-3.8c-2.4-1.4-4.1-2.5-5.2-3.3c-5.5-5.5-9.8-8.2-13.1-8.2c-3.3,0.4-5.4,1.7-6.3,4.1c-0.9,2.4-1.1,4.7-0.6,7.1c0.5,2.4,0.4,4.7-0.3,6.8c-0.4,1.5-1.5,3.4-3.3,5.7c-1.8,2.4-2.9,4-3.3,4.9c-0.4,0.9,0.2,2.5,1.6,4.7c1.5,1.1,2.9,1.1,4.4,0c1.4-1.1,3.5-2.7,6-4.9c2.6-2.2,5.3-3.8,8.2-4.9c0.4-0.4,2-0.6,4.9-0.6s5.6-0.4,8.2-1.1C581.1,86.9,582.8,85.6,583.5,83.8L583.5,83.8z M892.5,817.1c7.3,4.4,12.9,8.8,16.9,13.4c4,4.6,6.2,8.9,6.5,13.1c0.4,4.2-0.1,8.3-1.4,12.3c-1.3,4-4.1,8-8.5,12c-4.4,4-8.6,7.5-12.8,10.7c-4.2,3.1-9.7,6.5-16.4,10.1c-6.7,3.6-12.5,6.6-17.2,9c-4.7,2.4-10.6,5.2-17.5,8.5c-6.9,3.2-11.9,5.6-14.8,7.1c-13.9,6.9-29.4,17.1-46.8,30.6c-17.3,13.5-31.1,25.2-41.3,35c-6.2,5.8-18.6,9.4-37.2,10.7c-18.6,1.3-34.8-1.4-48.7-7.9c-6.6-3.3-11.9-7.6-16.1-12.8c-4.2-5.3-7.2-9.9-9-13.9c-1.8-4-5.8-7.6-12-10.7s-14.8-4.8-25.7-5.2c-16.1-0.4-39.7-0.6-71.1-0.6c-6.9,0-17.3,0.3-31.2,0.8c-13.9,0.5-24.4,1-31.7,1.4c-16.1,0.4-30.5,3.1-43.5,8.2s-22.7,10.6-29.3,16.4c-6.6,5.9-14.5,11-23.8,15.6c-9.3,4.5-19,6.6-29.3,6.3c-10.6-0.4-30.8-6-60.7-16.9c-29.9-10.9-56.5-18.8-79.8-23.5c-6.9-1.5-16.2-3.2-27.9-5.2c-11.7-2-20.8-3.6-27.3-4.9s-13.8-3-21.6-5.2c-7.8-2.1-13.9-4.8-18.3-7.9c-4.4-3.2-7.5-6.7-9.3-10.7c-3.6-8.4-2.4-20.5,3.8-36.4c6.2-15.9,9.5-25.8,9.8-29.8c0.4-5.8-0.4-13.1-2.2-21.9c-1.8-8.8-3.7-16.5-5.5-23.2c-1.8-6.7-2.6-13.4-2.4-19.9c0.2-6.6,2.1-11.5,5.7-14.8c5.1-4.4,15.5-6.9,31.2-7.7c15.7-0.7,26.6-2.9,32.8-6.5c10.9-6.6,18.6-12.9,23-19.1c4.4-6.2,6.5-15.5,6.5-27.9c7.7,26.6,1.8,45.9-17.5,58c-11.7,7.3-26.8,10-45.4,8.2c-12.4-1.1-20.2,0.7-23.5,5.5c-4.7,5.5-3.8,15.9,2.7,31.2c0.7,2.2,2.2,5.5,4.4,9.8c2.2,4.4,3.7,7.6,4.7,9.8c0.9,2.2,1.7,5.3,2.5,9.3c0.7,4,0.9,8,0.6,12c0,5.5-3.1,14.4-9.3,26.8c-6.2,12.4-8.8,21.2-7.7,26.2c1.1,6.2,7.8,10.9,20.2,14.2c7.3,2.2,22.7,5.6,46.2,10.1c23.5,4.5,41.6,8.3,54.4,11.2c8.7,2.2,22.2,6.2,40.5,12c18.2,5.8,33.3,10,45.1,12.6c11.9,2.5,22,3.3,30.3,2.2c15.7-2.2,27.4-7.3,35.3-15.3c7.8-8,12-16.8,12.6-26.2c0.5-9.5-0.8-20.1-4.1-32c-3.3-11.9-6.7-21.3-10.4-28.4c-3.7-7.1-7.3-13.7-11-19.9c-44.1-69.3-74.9-113.4-92.4-132.3c-24.8-27-45.4-34.3-61.8-21.9c-4,3.3-6.7,0.6-8.2-8.2c-1.1-5.8-1.5-12.8-1.1-20.8c0.4-10.6,2.2-20,5.5-28.4c3.3-8.4,7.6-16.9,13.1-25.7c5.5-8.7,9.5-16.4,12-23c2.9-7.7,7.7-20.8,14.5-39.4c6.7-18.6,12.1-32.8,16.1-42.7c4-9.8,9.5-21,16.4-33.4c6.9-12.4,14-22.2,21.3-29.5c40.1-52.1,62.7-87.7,67.8-106.6c-4.4-40.8-7.3-97.3-8.8-169.5c-0.7-32.8,3.7-60.4,13.1-82.8c9.5-22.4,28.8-41.5,58-57.2C439,13.9,458,10,481.7,10c19.3-0.4,38.6,2.1,58,7.4c19.3,5.3,35.5,12.9,48.7,22.7c20.8,15.3,37.5,37.4,50,66.4c12.6,29,18,55.9,16.1,80.7c-1.8,34.6,3.7,73.6,16.4,117c12.4,41.2,36.6,80.9,72.7,119.2c20,21.5,38.2,51.2,54.4,89.1c16.2,37.9,27.1,72.7,32.5,104.4c2.9,17.9,3.8,33.3,2.7,46.2c-1.1,12.9-3.3,23-6.5,30.3c-3.3,7.3-6.9,11.3-11,12c-3.6,0.7-7.9,4.2-12.8,10.4c-4.9,6.2-9.8,12.7-14.8,19.4c-4.9,6.7-12.3,12.8-22.2,18.3c-9.8,5.5-21,8-33.4,7.7c-6.6-0.4-12.3-1.3-17.2-2.7c-4.9-1.4-9-3.9-12.3-7.4c-3.3-3.5-5.8-6.3-7.4-8.5c-1.6-2.2-3.7-5.9-6.3-11.2c-2.6-5.3-4.2-8.9-4.9-10.7c-8-13.5-15.5-19-22.4-16.4c-6.9,2.5-12,11.5-15.3,26.8c-3.3,15.3-2,33,3.8,53.1c7.3,25.5,7.5,61.1,0.6,106.6c-3.6,23.7-0.4,42,9.8,54.9c10.2,12.9,23.5,18.9,39.9,18.1s31.9-7.4,46.5-19.4c21.5-17.9,37.8-30,48.9-36.4c11.1-6.4,30-14.1,56.6-23.2c19.3-6.6,33.4-13.2,42.1-19.9c8.7-6.7,12.1-13,10.1-18.9c-2-5.8-6.6-11-13.7-15.6c-7.1-4.5-16.5-8.8-28.2-12.8c-12-4-21.1-12.8-27.1-26.2c-6-13.5-8.7-26.7-8.2-39.7c0.5-13,3.4-21.6,8.5-26c0.4,11.3,1.8,21.6,4.4,30.9c2.5,9.3,5.2,16.7,7.9,22.2c2.8,5.5,6.5,10.7,11.2,15.6c4.7,4.9,8.5,8.4,11.5,10.4c2.9,2,6.9,4.4,11.8,7.1c4.9,2.7,7.9,4.5,9,5.2L892.5,817.1z"/></g>
</svg>