<?xml version="1.0" encoding="utf-8"?>
<!-- Svg Vector Icons : http://www.onlinewebfonts.com/icon -->
<!DOCTYPE svg PUBLIC "-//W3C//DTD SVG 1.1//EN" "http://www.w3.org/Graphics/SVG/1.1/DTD/svg11.dtd">
<svg version="1.1" xmlns="http://www.w3.org/2000/svg" xmlns:xlink="http://www.w3.org/1999/xlink" x="0px" y="0px" viewBox="0 0 1000 1000" enable-background="new 0 0 1000 1000" xml:space="preserve">
<metadata> Svg Vector Icons : http://www.onlinewebfonts.com/icon </metadata>
<g><path d="M586.9,496.5c0,53.7-40.4,97.3-90.3,97.3s-90.3-43.6-90.3-97.3c0-53.7,40.4-97.3,90.3-97.3S586.9,442.8,586.9,496.5z"/><path d="M816.2,329.7l-13.9,41.7h-7l-7-7h-7l-7-7h-20.9l-7-7h-13.9l-13.9-7h-13.9l-13.9-7h-34.7l-13.9-7h-34.7l-13.9-7h-97.3V274h90.3l13.9,7h41.7l7,7H691l7,7h20.9l13.9,7h13.9l7,7h20.9l7,7h13.9l7,7h7L816.2,329.7L816.2,329.7z M989.8,496.5h-41.7v-13.9l-7-7v-7l-13.9-13.9v-7h-7v-7l-7-7h-7v-7h-7L885.6,413h-7l-13.9-13.9h-7l-7-7h-7l-7-7h-7l-7-7H809l-7-7l13.9-41.7h7l13.9,7h7l7,7h13.9l13.9,13.9h7l13.9,13.9h7l20.9,20.9h7L955,413v7h7l7,7v7l7,7v7l7,7v13.9l7,7V496.5L989.8,496.5z M802.3,677.1l-7-41.7l7-7h7l13.9-7h7l13.9-13.9h7l7-7h13.9l27.8-27.8h7l7-7v-7h7l7-7v-7h7v-7l7-7v-7h7v-27.8H990v34.7h-7V545l-7,7v7l-13.9,13.9v7l-13.9,13.9h-7v7l-20.9,20.9h-7l-13.9,13.9l-13.9,7h-7l-13.9,13.9H851l-13.9,13.9h-13.9l-7,7L802.3,677.1L802.3,677.1z M496.5,725.7v-48.6h111.1l13.9-7h34.8l13.9-7H705l7-7h13.9l13.9-7h13.9l7-7h13.9l7-7h13.9l7,41.7l-7,7h-7l-7,7h-13.9l-13.9,7h-13.9l-13.9,7h-13.9l-7,7h-41.7l-7,7h-55.6l-7,7H496.5L496.5,725.7z M190.8,677.1l13.9-41.7h7l7,7h13.9l7,7h20.9l7,7h13.9l7,7H316l13.9,7h48.6l7,7h111.1v48.6H392.4l-7-7h-55.6l-7-7h-27.8l-13.9-7h-13.9l-13.9-7h-13.9l-7-7h-20.9l-7-7h-7L190.8,677.1L190.8,677.1z M10.2,496.5h41.7v27.8h7v7l7,7v7h7v7L93.7,573h7v7l7,7h7l13.9,13.9h7l7,7h7l13.9,13.9h13.9l7,7h7l13.9,7L191,677.3h-13.9l-7-7h-13.9l-13.9-13.9h-7l-13.9-7l-7-7h-7l-20.9-20.9h-7L52,593.8v-7h-7L31.2,573v-7l-7-7v-7l-7-7v-13.9l-7-7L10.2,496.5L10.2,496.5z M177,329.7l13.9,41.7l-7,7h-7l-7,7h-13.9l-7,7h-7l-13.9,13.9h-7l-7,7h-7v7l-7,7h-7l-7,7v7h-7l-13.9,13.9v7l-7,7v7h-7v20.9H10v-20.9l7-7v-13.9l7-7v-7l7-7v-7h7l7-7v-7l13.9-13.9h7v-7l13.9-13.9h7l13.9-13.9h7l7-7l13.9-7h7l13.9-13.9H163l7-7L177,329.7L177,329.7z M496.5,274.2v48.6h-90.3l-13.9,7h-41.7l-7,7h-27.8l-13.9,7h-27.8l-7,7h-20.9l-7,7h-7l-7,7h-20.9l-7,7h-7l-13.9-41.7l7-7h13.9l7-7h13.9l13.9-7h7l7-7h20.9l7-7h34.8l7-7h27.8l13.9-7h41.7l13.9-7H496.5L496.5,274.2z"/><path d="M524.4,100.5l27.8,41.7h-7L531.3,156v7l-48.6,48.6v13.9l-27.8,27.8l-7,13.9L434,281.1V295l-13.9,13.9l-7,13.9l-13.9,13.9v13.9l-7,7l-7,13.9l-7,7l-7,13.9v7l-7,13.9l-41.7-27.8l7-7l7-13.9l7-7l7-13.9l7-7v-13.9l7-7l7-13.9l7-7l7-13.9l7-7l7-13.9l13.9-13.9v-13.9l20.9-20.9l7-13.9l34.8-34.8l7-13.9l7-7v-7l34.7-34.8L524.4,100.5z M746.7,17.1l-20.9,41.7h-7l-7-7h-27.8l-7,7h-13.9l-7,7h-7l-7,7h-7l-7,7h-7l-13.9,13.9h-7l-48.6,48.6l-27.8-41.7l27.8-27.8l13.9-7h7l20.9-20.9h7L614.5,31h7l7-7h7l7-7h7l7-7h27.8l7-7h20.9l7,7h13.9l7,7H746.7L746.7,17.1z M788.4,288l-41.7-7l7-13.9v-41.7l7-7v-76.4l-7-7v-27.8h-7V86.5h-7V72.6h-7v-7h-7v-7L746.7,17v7h7l13.9,13.9v7h7v7l7,7v7l7,7v13.9l7,13.9v27.8l7,13.9v76.4l-7,13.9v48.6L788.4,288L788.4,288z M670.3,614.6l-34.8-27.8l13.9-13.9V559l7-7l7-13.9v-7l7-13.9l7-7v-13.9l7-7l7-13.9v-7l7-7v-13.9l7-7v-13.9l7-7v-7l7-13.9v-7l7-13.9v-7l7-7v-20.9l7-7v-20.9l7-7v-27.8l41.7,7v20.9l-7,7v20.9l-7,13.9v13.9l-7,13.9v7l-7,13.9v7l-7,7v13.9l-7,7v13.9l-7,7v13.9l-7,7v13.9l-7,7l-7,13.9v7l-7,13.9l-7,7V552l-7,7l-7,13.9v7l-7,13.9l-7,7L670.3,614.6L670.3,614.6z M482.6,892.5l-27.8-34.8l48.6-48.6v-7l7-7l7-13.9l20.9-20.9v-7l7-7l7-13.9l13.9-13.9l7-13.9v-7l7-7l7-13.9l13.9-13.9l7-13.9v-7l7-13.9l7-7l7-13.9v-7l7-13.9l34.8,27.8v7l-7,13.9l-7,7l-7,13.9l-7,7V677l-7,7l-7,13.9l-7,7l-7,13.9l-7,7v7l-7,13.9l-13.9,13.9l-7,13.9l-20.9,20.9v13.9l-41.7,41.7l-7,13.9l-7,7v7l-7,7h-7L482.6,892.5L482.6,892.5z M253.4,982.8l20.9-41.7h7l7,7H316l7-7h13.9l7-7h13.9l7-7h7l7-7h7v-7l7-7h7l13.9-7l41.7-41.7l27.8,34.7l-7,13.9l-13.9,7l-20.9,20.9h-7L413.3,955l-13.9,7h-7l-7,7h-7l-7,7h-7l-7,7h-7l-7,7h-20.9l-7,7h-27.8l-7-7h-13.9l-7-7L253.4,982.8L253.4,982.8z M204.7,725.7l41.7,13.9v27.8l-7,7v90.3l7,7v27.8l7,7v13.9h7v7l13.9,13.9l-20.9,41.7l-27.8-27.8v-7l-7-7v-7l-7-7v-13.9l-7-7v-27.8l-7-13.9v-90.3l7-13.9L204.7,725.7L204.7,725.7z M322.9,385.3l41.7,27.8l-7,7l-7,13.9l-7,7v13.9l-7,7l-7,13.9v13.9l-7,7l-7,13.9v7l-7,13.9l-7,7v13.9l-7,7V573l-7,7v13.9l-7,7v13.9l-7,7v13.9l-7,7v20.9l-7,7v20.9l-7,7V719l-7,7v13.9L204.5,726l7-7v-27.8l7-13.9v-20.9l7-7v-13.9l7-7v-13.9l7-7v-13.9l7-7v-13.9l7-7v-13.9l7-7v-13.9l7-13.9v-7l7-13.9l7-7v-13.9l7-7l13.9-27.8v-7l13.9-27.8l7-7L322.9,385.3L322.9,385.3z"/><path d="M204.7,281.1l41.7-13.9l7,7V302l7,13.9v13.9l7,13.9v7l7,13.9v13.9l7,13.9v7l7,13.9v7l7,13.9v7l7,13.9l7,7v13.9l7,7v13.9l7,7l7,13.9v7l7,13.9l7,7v13.9l7,7l7,13.9l7,7L330,614.8l-7-13.9l-7-7l-7-13.9l-7-7v-13.9l-7-13.9l-7-7v-13.9l-7-7l-7-13.9v-7l-13.9-27.8v-7l-7-13.9v-7l-7-13.9v-7l-7-13.9v-7l-7-13.9v-7l-7-13.9v-20.9l-7-7v-20.9l-7-7V288L204.7,281.1L204.7,281.1z M253.4,17.1l20.9,41.7v7h-7v7h-7v7l-7,7v13.9h-7v27.8l-7,7v83.4l7,7v41.7l-41.7,13.9v-48.6l-7-7v-97.3l7-7V93.6l7-7V72.7l7-7v-7l13.9-13.9v-7L253.4,17.1L253.4,17.1z M253.4,17.1L253.4,17.1L253.4,17.1z M482.6,114.4l-27.8,34.8l-55.6-55.6h-7l-13.9-13.9h-7l-7-7h-7l-7-7h-13.9l-7-7h-20.9v-7H295l-7,7h-13.9l-20.9-41.7h13.9v-7h69.5l7,7h7l7,7h7l7,7h7l7,7h13.9l20.9,20.9h7L441,72.7l13.9,7l20.9,20.9L482.6,114.4L482.6,114.4z M670.3,385.3l-34.8,27.8l-7-13.9v-7l-7-13.9l-13.9-13.9v-13.9l-7-7l-7-13.9l-13.9-13.9v-13.9L559,281.1l-7-13.9v-7l-27.8-27.8l-7-13.9v-7l-41.7-41.7v-7l-7-7h-7l-7-7l27.8-34.8l7,7h7l27.8,27.8v13.9l41.7,41.7l7,13.9v7l13.9,13.9l7,13.9l13.9,13.9l7,13.9v7l7,7l7,13.9l13.9,13.9v13.9l7,7l7,13.9l7,7l7,13.9V385.3L670.3,385.3z M635.5,413.1L635.5,413.1L635.5,413.1L635.5,413.1z M795.3,718.8l-41.7,7v-7l-7-13.9V691l-7-7v-20.9l-7-13.9v-13.9l-7-13.9v-7l-7-7v-13.9l-7-7v-13.9l-7-7V552L691,538.1v-13.9l-7-7v-13.9l-7-7l-7-13.9v-7l-7-13.9l-7-7l-7-13.9v-7l-7-13.9l-7-7l34.8-27.8l7,13.9l7,7l7,13.9v7l7,13.9l7,7l7,13.9v13.9l7,7l7,13.9v7l7,13.9l7,7v13.9l7,7V559l7,7v13.9l7,7v13.9l7,7v13.9l7,7v20.9l7,7v13.9l7,7V705L795.3,718.8L795.3,718.8z M746.7,982.8l-20.9-41.7v-7h7v-7h7v-7l7-7v-7l7-7v-27.8l7-7v-97.3l-7-7v-34.8l41.7-7v34.8l7,7v111.1l-7,7v27.8l-7,7v13.9l-7,7v7l-7,7v7L746.7,982.8L746.7,982.8z M746.7,982.8L746.7,982.8L746.7,982.8z M531.3,899.5l27.8-34.8l48.6,48.6h7l7,7h7l7,7h7l7,7h7v7h20.9l7,7H719v-7h7l20.9,41.7h-7l-7,7H719l-7,7h-27.8l-7-7h-20.9l-7-7h-13.9l-7-7h-7l-7-7h-7l-13.9-13.9h-7L531.3,899.5L531.3,899.5z M329.8,614.6l34.8-27.8l7,13.9v13.9l7,7l7,13.9l13.9,13.9v13.9l7,7l7,13.9l7,7l7,13.9l13.9,13.9l7,13.9v7l13.9,13.9l7,13.9l34.8,34.8v7l55.6,55.6l-27.8,34.8L455,823.1l-7-13.9l-13.9-13.9v-7l-7-13.9l-13.9-13.9l-7-13.9l-13.9-13.9l-7-13.9l-7-7l-7-13.9l-7-7v-13.9l-7-7l-7-13.9l-7-7l-13.9-27.8V614.6L329.8,614.6z"/></g>
</svg>